<svg xmlns="http://www.w3.org/2000/svg" width="14.833" height="19.778" viewBox="0 0 14.833 19.778">
    <g>
        <path fill="#6d8dbe" d="M79.958 71.361h4.326a.618.618 0 1 1 0 1.236h-4.326a.618.618 0 1 1 0-1.236zm0-2.472h5.562a.618.618 0 1 1 0 1.236h-5.562a.618.618 0 1 1 0-1.236zm0-2.472h7.417a.618.618 0 0 1 0 1.236h-7.417a.618.618 0 1 1 0-1.236zm6.8-5.307v2.236h2.236zm-9.271-.874v17.306h12.36v-12.96h-4.326v-4.346zm0-1.236h8.909l4.689 4.689v13.853a1.237 1.237 0 0 1-1.236 1.236H77.486a1.237 1.237 0 0 1-1.236-1.236V60.236A1.237 1.237 0 0 1 77.486 59z" transform="translate(-76.25 -59)"/>
    </g>
</svg>
