<svg xmlns="http://www.w3.org/2000/svg" width="51.687" height="51.687" viewBox="0 0 51.687 51.687">
    <path fill="#929292" fill-rule="evenodd" d="M148.5 514.146a1.411 1.411 0 0 0-1.484 1.545v21.488h-10.591v-8.711a1.506 1.506 0 0 0-1.334-1.546h-7.653a1.647 1.647 0 0 0-1.62 1.546v8.711h-10.456v-20.715a1.49 1.49 0 0 0-1.471-1.544 1.407 1.407 0 0 0-1.471 1.544v22.459a1.523 1.523 0 0 0 1.471 1.559h13.548a1.509 1.509 0 0 0 1.321-1.559v-8.9h4.711v8.9a1.666 1.666 0 0 0 1.62 1.559H148.5a1.636 1.636 0 0 0 1.471-1.559V515.69a1.49 1.49 0 0 0-1.471-1.545zm8.089 1.159c-9.722-10.457-15.755-16.838-24.442-25.937a1.162 1.162 0 0 0-.885-.573 1.452 1.452 0 0 0-1.171.573l-24.3 25.75a1.949 1.949 0 0 0-.436 1.16 1.138 1.138 0 0 0 .436.96 1.213 1.213 0 0 0 2.069 0l23.406-24.579 23.27 24.965a1.425 1.425 0 0 0 1.034.387 1.546 1.546 0 0 0 1.022-2.705z" transform="translate(-105.353 -488.795)"/>
</svg>
