<svg xmlns="http://www.w3.org/2000/svg">
  <symbol id="arrow" viewBox="0 0 8 15" fill="none" stroke="currentColor">
    <path stroke-linejoin="round" d="M7 0l7 7zm0 0L0 7z" transform="rotate(-90 7.5 7)"/>
  </symbol>
  <symbol id="menu" viewBox="0 0 16 14" fill="currentColor">
    <g transform="translate(-326 -24)">
      <g transform="translate(326 24)">
          <rect width="16" height="2" rx="1"/>
          <rect width="15" height="1" x=".5" y=".5" rx=".5"/>
      </g>
      <g transform="translate(326 30)">
          <rect width="16" height="2" rx="1"/>
          <rect width="15" height="1" x=".5" y=".5" rx=".5"/>
      </g>
      <g transform="translate(326 36)">
          <rect width="16" height="2" rx="1"/>
          <rect width="15" height="1" x=".5" y=".5" rx=".5"/>
      </g>
    </g>
  </symbol>
  <symbol id="home" viewBox="0 0 51.687 51.687" fill="currentColor">
    <path d="M148.5 514.146a1.411 1.411 0 0 0-1.484 1.545v21.488h-10.591v-8.711a1.506 1.506 0 0 0-1.334-1.546h-7.653a1.647 1.647 0 0 0-1.62 1.546v8.711h-10.456v-20.715a1.49 1.49 0 0 0-1.471-1.544 1.407 1.407 0 0 0-1.471 1.544v22.459a1.523 1.523 0 0 0 1.471 1.559h13.548a1.509 1.509 0 0 0 1.321-1.559v-8.9h4.711v8.9a1.666 1.666 0 0 0 1.62 1.559H148.5a1.636 1.636 0 0 0 1.471-1.559V515.69a1.49 1.49 0 0 0-1.471-1.545zm8.089 1.159c-9.722-10.457-15.755-16.838-24.442-25.937a1.162 1.162 0 0 0-.885-.573 1.452 1.452 0 0 0-1.171.573l-24.3 25.75a1.949 1.949 0 0 0-.436 1.16 1.138 1.138 0 0 0 .436.96 1.213 1.213 0 0 0 2.069 0l23.406-24.579 23.27 24.965a1.425 1.425 0 0 0 1.034.387 1.546 1.546 0 0 0 1.022-2.705z" transform="translate(-105.353 -488.795)"/>
  </symbol>
  <symbol id="file" viewBox="0 0 14.833 19.778" fill="currentColor">
    <path d="M79.958 71.361h4.326a.618.618 0 1 1 0 1.236h-4.326a.618.618 0 1 1 0-1.236zm0-2.472h5.562a.618.618 0 1 1 0 1.236h-5.562a.618.618 0 1 1 0-1.236zm0-2.472h7.417a.618.618 0 0 1 0 1.236h-7.417a.618.618 0 1 1 0-1.236zm6.8-5.307v2.236h2.236zm-9.271-.874v17.306h12.36v-12.96h-4.326v-4.346zm0-1.236h8.909l4.689 4.689v13.853a1.237 1.237 0 0 1-1.236 1.236H77.486a1.237 1.237 0 0 1-1.236-1.236V60.236A1.237 1.237 0 0 1 77.486 59z" transform="translate(-76.25 -59)"/>
  </symbol>
  <symbol id="instagram" viewBox="0 0 511 511.9" fill="currentColor">
    <path d="m510.949219 150.5c-1.199219-27.199219-5.597657-45.898438-11.898438-62.101562-6.5-17.199219-16.5-32.597657-29.601562-45.398438-12.800781-13-28.300781-23.101562-45.300781-29.5-16.296876-6.300781-34.898438-10.699219-62.097657-11.898438-27.402343-1.300781-36.101562-1.601562-105.601562-1.601562s-78.199219.300781-105.5 1.5c-27.199219 1.199219-45.898438 5.601562-62.097657 11.898438-17.203124 6.5-32.601562 16.5-45.402343 29.601562-13 12.800781-23.097657 28.300781-29.5 45.300781-6.300781 16.300781-10.699219 34.898438-11.898438 62.097657-1.300781 27.402343-1.601562 36.101562-1.601562 105.601562s.300781 78.199219 1.5 105.5c1.199219 27.199219 5.601562 45.898438 11.902343 62.101562 6.5 17.199219 16.597657 32.597657 29.597657 45.398438 12.800781 13 28.300781 23.101562 45.300781 29.5 16.300781 6.300781 34.898438 10.699219 62.101562 11.898438 27.296876 1.203124 36 1.5 105.5 1.5s78.199219-.296876 105.5-1.5c27.199219-1.199219 45.898438-5.597657 62.097657-11.898438 34.402343-13.300781 61.601562-40.5 74.902343-74.898438 6.296876-16.300781 10.699219-34.902343 11.898438-62.101562 1.199219-27.300781 1.5-36 1.5-105.5s-.101562-78.199219-1.300781-105.5zm-46.097657 209c-1.101562 25-5.300781 38.5-8.800781 47.5-8.601562 22.300781-26.300781 40-48.601562 48.601562-9 3.5-22.597657 7.699219-47.5 8.796876-27 1.203124-35.097657 1.5-103.398438 1.5s-76.5-.296876-103.402343-1.5c-25-1.097657-38.5-5.296876-47.5-8.796876-11.097657-4.101562-21.199219-10.601562-29.398438-19.101562-8.5-8.300781-15-18.300781-19.101562-29.398438-3.5-9-7.699219-22.601562-8.796876-47.5-1.203124-27-1.5-35.101562-1.5-103.402343s.296876-76.5 1.5-103.398438c1.097657-25 5.296876-38.5 8.796876-47.5 4.101562-11.101562 10.601562-21.199219 19.203124-29.402343 8.296876-8.5 18.296876-15 29.398438-19.097657 9-3.5 22.601562-7.699219 47.5-8.800781 27-1.199219 35.101562-1.5 103.398438-1.5 68.402343 0 76.5.300781 103.402343 1.5 25 1.101562 38.5 5.300781 47.5 8.800781 11.097657 4.097657 21.199219 10.597657 29.398438 19.097657 8.5 8.300781 15 18.300781 19.101562 29.402343 3.5 9 7.699219 22.597657 8.800781 47.5 1.199219 27 1.5 35.097657 1.5 103.398438s-.300781 76.300781-1.5 103.300781zm0 0"/>
    <path d="m256.449219 124.5c-72.597657 0-131.5 58.898438-131.5 131.5s58.902343 131.5 131.5 131.5c72.601562 0 131.5-58.898438 131.5-131.5s-58.898438-131.5-131.5-131.5zm0 216.800781c-47.097657 0-85.300781-38.199219-85.300781-85.300781s38.203124-85.300781 85.300781-85.300781c47.101562 0 85.300781 38.199219 85.300781 85.300781s-38.199219 85.300781-85.300781 85.300781zm0 0"/>
    <path d="m423.851562 119.300781c0 16.953125-13.746093 30.699219-30.703124 30.699219-16.953126 0-30.699219-13.746094-30.699219-30.699219 0-16.957031 13.746093-30.699219 30.699219-30.699219 16.957031 0 30.703124 13.742188 30.703124 30.699219zm0 0"/>
  </symbol>
  <symbol id="facebook" viewBox="0 0 24 24" fill="currentColor">
    <path d="m15.997 3.985h2.191v-3.816c-.378-.052-1.678-.169-3.192-.169-3.159 0-5.323 1.987-5.323 5.639v3.361h-3.486v4.266h3.486v10.734h4.274v-10.733h3.345l.531-4.266h-3.877v-2.939c.001-1.233.333-2.077 2.051-2.077z"/>
  </symbol>
  <symbol id="cancel" viewBox="0 0 20 20" fill="none" stroke="currentColor">
    <path stroke-linecap="round" stroke-linejoin="round" stroke-width="2px" d="M430 9l-9 9 9-9-9-9 9 9 9-9-9 9 9 9z" transform="translate(-420 1)"/>
  </symbol>
</svg>
